<svg width="24" height="24" viewBox="0 0 24 24" fill="none" xmlns="http://www.w3.org/2000/svg">
<path d="M16.25 20.5C16.44 20.5001 16.6229 20.5722 16.7618 20.702C16.9006 20.8317 16.9851 21.0093 16.998 21.1989C17.011 21.3885 16.9515 21.5759 16.8316 21.7233C16.7116 21.8707 16.5402 21.9671 16.352 21.993L16.25 22H7.74999C7.55861 22.0019 7.37373 21.9307 7.2332 21.8007C7.09268 21.6708 7.00714 21.4921 6.9941 21.3011C6.98107 21.1102 7.04152 20.9215 7.16308 20.7737C7.28465 20.6258 7.45812 20.5301 7.64799 20.506L7.74999 20.5H16.25ZM11.007 2.37C11.3438 2.13787 11.7513 2.03107 12.1587 2.06815C12.5661 2.10524 12.9476 2.28387 13.237 2.573L13.344 2.691L21.209 12.129C21.4142 12.3751 21.548 12.6728 21.5956 12.9897C21.6433 13.3066 21.603 13.6304 21.4792 13.926C21.3554 14.2216 21.1529 14.4775 20.8936 14.6658C20.6343 14.8541 20.3283 14.9677 20.009 14.994L19.865 14.999H16.999L17 17.25C17.0001 17.6636 16.8537 18.0639 16.5869 18.3798C16.32 18.6958 15.9498 18.907 15.542 18.976L15.393 18.995L15.25 19.001H8.74999C8.31064 19.001 7.88738 18.8357 7.56428 18.538C7.24118 18.2402 7.04189 17.8319 7.00599 17.394L6.99999 17.25L6.99899 15H4.13499C3.84444 14.9998 3.5585 14.9273 3.30299 14.789L3.15399 14.699L3.01399 14.594C2.67861 14.3145 2.45984 13.9196 2.40063 13.4871C2.34142 13.0545 2.44606 12.6154 2.69399 12.256L2.79099 12.129L10.656 2.691L10.763 2.574L10.88 2.467L11.007 2.371V2.37ZM12.192 3.652C12.157 3.60997 12.1092 3.58056 12.056 3.56827C12.0027 3.55599 11.9468 3.56152 11.897 3.584L11.84 3.62L11.808 3.652L3.94299 13.09C3.9158 13.1228 3.89743 13.1619 3.88961 13.2037C3.88179 13.2456 3.88478 13.2887 3.8983 13.3291C3.91182 13.3694 3.93542 13.4057 3.96687 13.4344C3.99831 13.4631 4.03656 13.4832 4.07799 13.493L4.13499 13.499H7.74999C7.93138 13.499 8.1066 13.5648 8.24321 13.6841C8.37982 13.8035 8.46856 13.9683 8.49299 14.148L8.49999 14.249V17.249C8.49986 17.3055 8.51886 17.3604 8.55391 17.4047C8.58896 17.449 8.63798 17.4801 8.69299 17.493L8.74999 17.5H15.25C15.3063 17.4999 15.361 17.4808 15.4051 17.4458C15.4492 17.4107 15.4801 17.3618 15.493 17.307L15.5 17.25V14.25C15.4998 14.0686 15.5653 13.8932 15.6844 13.7564C15.8036 13.6197 15.9683 13.5307 16.148 13.506L16.25 13.499H19.865C19.9075 13.499 19.9494 13.4881 19.9865 13.4675C20.0237 13.4468 20.055 13.417 20.0774 13.3808C20.0998 13.3447 20.1127 13.3034 20.1147 13.2609C20.1167 13.2184 20.1079 13.1761 20.089 13.138L20.057 13.089L12.192 3.652Z" fill="#0F1828"/>
</svg>
