<svg width="24" height="24" viewBox="0 0 24 24" fill="none" xmlns="http://www.w3.org/2000/svg">
<path d="M12.998 22H10.998V19H12.998V22ZM18.362 19.778L16.241 17.657L17.655 16.243L19.777 18.365L18.364 19.778H18.362ZM5.634 19.778L4.219 18.364L6.339 16.242L7.754 17.656L5.634 19.777V19.778ZM11.998 17.007C9.23297 17.0059 6.99226 14.7637 6.993 11.9987C6.99374 9.23364 9.23564 6.99263 12.0007 6.993C14.7657 6.99337 17.007 9.23497 17.007 12C17.0042 14.7649 14.7629 17.0053 11.998 17.007ZM11.998 8.993C10.3375 8.9941 8.99227 10.3409 8.993 12.0013C8.99374 13.6618 10.3402 15.0074 12.0007 15.007C13.6611 15.0066 15.007 13.6605 15.007 12C15.0053 10.3392 13.6588 8.99355 11.998 8.993ZM21.998 13H18.998V11H21.998V13ZM4.998 13H1.998V11H4.998V13ZM17.654 7.758L16.241 6.343L18.362 4.221L19.777 5.636L17.655 7.757L17.654 7.758ZM6.341 7.758L4.221 5.637L5.636 4.223L7.756 6.345L6.342 7.757L6.341 7.758ZM12.998 5H10.998V2H12.998V5Z" fill="#0F1828"/>
</svg>
